<?xml version="1.0" encoding="iso-8859-1"?>
<!-- Generator: Adobe Illustrator 19.0.0, SVG Export Plug-In . SVG Version: 6.00 Build 0)  -->
<svg version="1.1" id="Layer_1" xmlns="http://www.w3.org/2000/svg" xmlns:xlink="http://www.w3.org/1999/xlink" x="0px" y="0px"
	 viewBox="0 0 480 480" style="enable-background:new 0 0 480 480;" xml:space="preserve">
<g transform="translate(0 -540.36)">
	<path style="fill:#DADFE1;" d="M53.698,635.466h372.604c8.332,0,15.039,6.707,15.039,15.039v237.151
		c0,8.332-6.707,15.039-15.039,15.039H53.698c-8.332,0-15.039-6.707-15.039-15.039V650.505
		C38.659,642.173,45.366,635.466,53.698,635.466z"/>
	<path style="fill:#606775;" d="M55.144,651.079h369.713v236.003H55.144L55.144,651.079z"/>
	<path style="fill:#BCBDBF;" d="M0,902.695c0,12.498,11.211,22.559,25.136,22.559h429.728c13.925,0,25.136-10.061,25.136-22.559H0z"
		/>
	<path style="fill:#7C7E7F;" d="M208.089,902.695c0,4.513,3.406,8.146,5.297,8.146H268.8c1.891,0,4.459-3.633,4.459-8.146
		L208.089,902.695z"/>
	<g>
		<path style="fill:#676E7B;" d="M238.715,651.079l128.879,236.004h57.264V651.079H238.715L238.715,651.079z"/>
		<path style="fill:#676E7B;" d="M150.422,651.079l128.879,236.004h65.102L215.523,651.079H150.422L150.422,651.079z"/>
	</g>
</g>
<g>
</g>
<g>
</g>
<g>
</g>
<g>
</g>
<g>
</g>
<g>
</g>
<g>
</g>
<g>
</g>
<g>
</g>
<g>
</g>
<g>
</g>
<g>
</g>
<g>
</g>
<g>
</g>
<g>
</g>
</svg>
